<?xml version="1.0" encoding="UTF-8" standalone="no"?>
<!-- Created with Inkscape (http://www.inkscape.org/) -->

<svg
   width="152.39999mm"
   height="196.44122mm"
   viewBox="0 0 152.39999 196.44122"
   version="1.1"
   id="svg5"
   sodipodi:docname="rtdl-logo-text-inkscape.svg"
   inkscape:version="1.1.2 (b8e25be8, 2022-02-05)"
   xmlns:inkscape="http://www.inkscape.org/namespaces/inkscape"
   xmlns:sodipodi="http://sodipodi.sourceforge.net/DTD/sodipodi-0.dtd"
   xmlns="http://www.w3.org/2000/svg"
   xmlns:svg="http://www.w3.org/2000/svg">
  <sodipodi:namedview
     id="namedview7"
     pagecolor="#ffffff"
     bordercolor="#666666"
     borderopacity="1.0"
     inkscape:pageshadow="2"
     inkscape:pageopacity="0.0"
     inkscape:pagecheckerboard="0"
     inkscape:document-units="mm"
     showgrid="false"
     inkscape:zoom="0.83641429"
     inkscape:cx="287.53693"
     inkscape:cy="371.22752"
     inkscape:window-width="1440"
     inkscape:window-height="847"
     inkscape:window-x="0"
     inkscape:window-y="25"
     inkscape:window-maximized="1"
     inkscape:current-layer="layer4" />
  <defs
     id="defs2" />
  <g
     inkscape:label="background-light-blue"
     inkscape:groupmode="layer"
     id="layer1"
     transform="translate(-28.672432,-72.300003)" />
  <g
     inkscape:groupmode="layer"
     id="layer2"
     inkscape:label="wave-mid-blue"
     transform="translate(-28.672432,-72.300003)">
    <text
       xml:space="preserve"
       style="font-size:10.5833px;line-height:1.25;font-family:'Apple Color Emoji';-inkscape-font-specification:'Apple Color Emoji';stroke-width:0.264583"
       x="24.7104"
       y="38.016003"
       id="text5228"><tspan
         sodipodi:role="line"
         id="tspan5226"
         style="stroke-width:0.264583"
         x="24.7104"
         y="38.016003" /></text>
    <text
       xml:space="preserve"
       style="font-size:10.5833px;line-height:1.25;font-family:'Apple Color Emoji';-inkscape-font-specification:'Apple Color Emoji';stroke-width:0.264583"
       x="74.131195"
       y="28.0368"
       id="text9648"><tspan
         sodipodi:role="line"
         id="tspan9646"
         style="stroke-width:0.264583"
         x="74.131195"
         y="28.0368" /></text>
  </g>
  <g
     inkscape:groupmode="layer"
     id="layer3"
     inkscape:label="wave-dark-blue"
     transform="translate(-28.672432,-72.300003)" />
  <g
     inkscape:groupmode="layer"
     id="layer4"
     inkscape:label="lightning"
     style="display:inline"
     transform="translate(-28.672432,-72.300003)">
    <g
       id="g111">
      <circle
         style="fill:#d2ffff;fill-opacity:1;fill-rule:evenodd;stroke-width:0.264583"
         id="path53"
         cx="104.87243"
         cy="148.5"
         r="76.199997" />
      <path
         id="path53-9"
         style="fill:#09c3db;fill-opacity:1;fill-rule:evenodd;stroke-width:0.999999"
         d="m 471.0368,498.85498 c -5.0732,-0.0925 -13.62185,0.0511 -18.43777,0.4414 -81.73326,6.62472 -171.98415,129.5712 -249.64786,129.31495 -40.49355,-0.13354 -65.10612,-60.0026 -92.95312,-96.19141 -1.02503,9.57999 -1.56868,19.20537 -1.62891,28.83985 -1e-5,159.05801 128.94199,288.00001 288,288 132.65154,-0.0631 248.10239,-90.72452 279.61719,-219.57813 C 621.75694,564.94299 540.06158,500.11305 471.0368,498.85498 Z"
         sodipodi:nodetypes="scsccccs"
         transform="scale(0.26458333)" />
      <path
         id="path53-4"
         style="fill:#024b86;fill-opacity:1;fill-rule:evenodd;stroke-width:0.999999"
         d="m 281.03125,473.08008 c -67.01567,0.33494 -135.14776,64.82556 -169.50391,130.58789 21.00858,141.11698 142.16958,245.58251 284.8418,245.5918 73.49364,-0.0219 140.5958,-27.58393 191.49625,-72.96115 C 509.33546,745.98434 487.49159,732.32685 457.98845,696.8599 398.96714,625.90793 352.70291,482.46398 296.3457,474.15234 c -5.08762,-0.75033 -10.19798,-1.09783 -15.31445,-1.07226 z"
         sodipodi:nodetypes="scccsss"
         transform="scale(0.26458333)" />
      <path
         fill="#ffac33"
         d="m 157.56867,140.21309 c -0.51517,-1.37941 -1.83452,-2.29661 -3.309,-2.29661 h -42.59803 l 24.57114,-47.773054 c 0.7721,-1.502832 0.37275,-3.340802 -0.95581,-4.385033 C 134.634,85.250401 133.86243,85 133.09338,85 c -0.82136,0 -1.64391,0.289274 -2.30366,0.857169 l -25.9186,22.383721 -51.692365,44.64402 c -1.11422,0.96247 -1.51705,2.51879 -1.00107,3.8982 0.51518,1.37927 1.83082,2.30007 3.3054,2.30007 h 42.597917 l -24.571016,47.77314 c -0.772101,1.50281 -0.37274,3.34081 0.95581,4.38489 0.64298,0.50852 1.41442,0.75879 2.18359,0.75879 0.82136,0 1.64392,-0.28888 2.30367,-0.85731 l 25.918464,-22.38383 51.6925,-44.64398 c 1.11823,-0.96247 1.51691,-2.51879 1.00505,-3.90166 z"
         id="path2"
         style="stroke-width:3.52777" />
    </g>
    <text
       xml:space="preserve"
       style="font-style:normal;font-weight:normal;font-size:52.9167px;line-height:1.25;font-family:sans-serif;letter-spacing:1.32292px;display:inline;fill:#09c3db;fill-opacity:1;stroke:none;stroke-width:0.264583"
       x="27.57353"
       y="268.05331"
       id="text2374"><tspan
         sodipodi:role="line"
         id="tspan2372"
         style="font-style:normal;font-variant:normal;font-weight:bold;font-stretch:normal;font-size:52.9167px;font-family:'Helvetica Neue';-inkscape-font-specification:'Helvetica Neue Bold';fill:#09c3db;fill-opacity:1;stroke-width:0.264583"
         x="27.57353"
         y="268.05331">rtdl.io</tspan></text>
  </g>
</svg>
